<svg viewBox="0 0 24 24" fill="currentColor" xmlns="http://www.w3.org/2000/svg">
  <path fill-rule="evenodd" clip-rule="evenodd" d="M12 2L12.5006 1.13434C12.1909 0.955222 11.8091 0.955222 11.4994 1.13434L12 2ZM11.3284 3.63668C11.5881 3.4525 11.8159 3.29921 12 3.17903C12.1841 3.29921 12.4119 3.4525 12.6716 3.63668C13.3922 4.14757 14.3498 4.88955 15.3036 5.81508C17.2487 7.70259 19 10.1801 19 12.9C19 16.833 15.8543 20 12 20C8.14568 20 5 16.833 5 12.9C5 10.1801 6.75134 7.70259 8.69641 5.81508C9.65016 4.88955 10.6078 4.14757 11.3284 3.63668ZM12 2C11.4994 1.13434 11.4991 1.1345 11.4988 1.13468L11.498 1.13512L11.4959 1.13634L11.4896 1.14005L11.4683 1.15256C11.4504 1.16314 11.4251 1.17821 11.3929 1.19768C11.3285 1.23661 11.2364 1.29316 11.1206 1.36661C10.8891 1.51343 10.5622 1.7282 10.1716 2.00515C9.39218 2.55777 8.34984 3.36451 7.30359 4.37979C5.24866 6.3739 3 9.34638 3 12.9C3 17.914 7.01776 22 12 22C16.9822 22 21 17.914 21 12.9C21 9.34638 18.7513 6.3739 16.6964 4.37979C15.6502 3.36451 14.6078 2.55777 13.8284 2.00515C13.4378 1.7282 13.1109 1.51343 12.8794 1.36661C12.7636 1.29316 12.6715 1.23661 12.6071 1.19768C12.5749 1.17821 12.5496 1.16314 12.5317 1.15256L12.5104 1.14005L12.5041 1.13634L12.502 1.13512L12.5012 1.13468C12.5009 1.1345 12.5006 1.13434 12 2ZM12.9031 8.20411C12.8402 8.11833 12.7515 8.05486 12.65 8.02294C12.5486 7.99094 12.4396 7.99261 12.3389 8.02677C12.2382 8.06094 12.151 8.12633 12.09 8.21344L9.09001 13.2135C9.0376 13.2885 9.00676 13.3763 9.00083 13.4676C8.99491 13.5589 9.01413 13.65 9.05641 13.7311C9.09869 13.8122 9.1624 13.8802 9.24061 13.9276C9.31883 13.975 9.40855 14 9.50001 14L11 13.9999V16.4999C10.9999 16.6064 11.0338 16.71 11.0967 16.7959C11.1596 16.8817 11.2483 16.9452 11.3498 16.9772C11.4513 17.0091 11.5604 17.0079 11.6611 16.9736C11.7619 16.9393 11.8491 16.8737 11.91 16.7864L14.91 11.7865C14.9624 11.7115 14.9933 11.6237 14.9992 11.5324C15.0051 11.4411 14.9859 11.35 14.9436 11.2689C14.9013 11.1878 14.8376 11.1198 14.7594 11.0724C14.6812 11.025 14.5915 11 14.5 11L13 10.9999V8.49994C13 8.39353 12.966 8.2899 12.9031 8.20411Z" />
</svg>
