<svg viewBox="0 0 24 24" fill="currentColor" xmlns="http://www.w3.org/2000/svg">
  <path fill-rule="evenodd" clip-rule="evenodd" d="M9.70711 6.53563C9.31658 6.92615 9.31658 7.55932 9.70711 7.94984C10.0976 8.34036 10.7308 8.34036 11.1213 7.94984L11.8284 7.24272L13.2924 8.70664C13.105 9.09828 13 9.53691 13 10.0001C13 11.1046 12.1046 12.0001 11 12.0001H10.0005C9.16474 11.3721 8.12582 11.0001 7 11.0001C4.23858 11.0001 2 13.2386 2 16.0001C2 18.7615 4.23858 21.0001 7 21.0001C9.41896 21.0001 11.4367 19.2823 11.9 17.0001H15.0354C15.0121 17.1634 15 17.3303 15 17.5001C15 19.4331 16.567 21.0001 18.5 21.0001C20.433 21.0001 22 19.4331 22 17.5001C22 16.5464 21.6186 15.6818 21 15.0506V10.0001C21 8.3432 19.6569 7.00006 18 7.00006H16C15.5369 7.00006 15.0982 7.10501 14.7066 7.29243L13.2427 5.8285L13.9497 5.12141C14.3403 4.73089 14.3403 4.09772 13.9497 3.7072C13.5592 3.31668 12.9261 3.31668 12.5355 3.7072L9.70711 6.53563ZM11.9 15.0001H16V15.0506C16.6353 14.4023 17.5207 14.0001 18.5 14.0001C18.6698 14.0001 18.8367 14.0121 19 14.0355V10.0001C19 9.44777 18.5523 9.00006 18 9.00006H16C15.4477 9.00006 15 9.44777 15 10.0001C15 12.0169 13.5073 13.6852 11.5664 13.9603C11.7137 14.2896 11.8264 14.6377 11.9 15.0001ZM5 8.00006C4.44772 8.00006 4 8.44777 4 9.00006C4 9.55234 4.44772 10.0001 5 10.0001H9C9 8.89549 8.10457 8.00006 7 8.00006H5ZM7 19.0001C8.65685 19.0001 10 17.6569 10 16.0001C10 14.3432 8.65685 13.0001 7 13.0001C5.34315 13.0001 4 14.3432 4 16.0001C4 17.6569 5.34315 19.0001 7 19.0001ZM18.5 19.0001C19.3284 19.0001 20 18.3285 20 17.5001C20 16.6716 19.3284 16.0001 18.5 16.0001C17.6716 16.0001 17 16.6716 17 17.5001C17 18.3285 17.6716 19.0001 18.5 19.0001Z" />
</svg>
