<svg width="24" height="24" viewBox="0 0 24 24" fill="none" xmlns="http://www.w3.org/2000/svg">
<path d="M12.06 17.3094C13.2361 17.3094 14.1895 16.3561 14.1895 15.18C14.1895 14.0039 13.2361 13.0506 12.06 13.0506C10.8839 13.0506 9.93056 14.0039 9.93056 15.18C9.93056 16.3561 10.8839 17.3094 12.06 17.3094Z" fill="#00B812"/>
<path fill-rule="evenodd" clip-rule="evenodd" d="M0.449533 5.74781C0 7.07209 0 8.71473 0 12C0 15.2853 0 16.9279 0.449533 18.2522C1.29602 20.7459 3.25414 22.704 5.74781 23.5505C7.07209 24 8.71473 24 12 24C15.2853 24 16.9279 24 18.2522 23.5505C20.7459 22.704 22.704 20.7459 23.5505 18.2522C24 16.9279 24 15.2853 24 12C24 8.71473 24 7.07209 23.5505 5.74781C22.704 3.25414 20.7459 1.29602 18.2522 0.449533C16.9279 0 15.2853 0 12 0C8.71473 0 7.07209 0 5.74781 0.449533C3.25414 1.29602 1.29602 3.25414 0.449533 5.74781ZM9.7509 4.92H13.1706V10.5553H11.0503V6.7341H9.15096L9.7509 4.92ZM12.06 19.08C14.2139 19.08 15.96 17.3339 15.96 15.18C15.96 13.0261 14.2139 11.28 12.06 11.28C9.90611 11.28 8.16002 13.0261 8.16002 15.18C8.16002 17.3339 9.90611 19.08 12.06 19.08Z" fill="#00B812"/>
</svg>
