<svg viewBox="0 0 27 27" fill="none" xmlns="http://www.w3.org/2000/svg">
  <path d="M26.9177 13.4588C26.9177 22.7502 22.7502 26.9177 13.4588 26.9177C4.16745 26.9177 0 22.7502 0 13.4588C0 4.16745 4.16745 0 13.4588 0C22.7502 0 26.9177 4.16745 26.9177 13.4588Z" fill="#00B812" />
  <path d="M14.6749 5.70702L10.9307 5.70702L10.2738 7.69326H12.3535V11.8771H14.6749V5.70702Z" fill="white" />
  <path fill-rule="evenodd" clip-rule="evenodd" d="M17.729 16.9406C17.729 19.2989 15.8172 21.2107 13.4589 21.2107C11.1006 21.2107 9.18887 19.2989 9.18887 16.9406C9.18887 14.5823 11.1006 12.6705 13.4589 12.6705C15.8172 12.6705 17.729 14.5823 17.729 16.9406ZM15.7904 16.9406C15.7904 18.2282 14.7466 19.2721 13.4589 19.2721C12.1713 19.2721 11.1274 18.2282 11.1274 16.9406C11.1274 15.6529 12.1713 14.6091 13.4589 14.6091C14.7466 14.6091 15.7904 15.6529 15.7904 16.9406Z" fill="white" />
</svg>
