<svg width="88" height="163" viewBox="0 0 88 163" fill="none" xmlns="http://www.w3.org/2000/svg">
<g filter="url(#filter0_d)">
<path d="M54.689 12.2711C54.689 11.5691 55.2444 11 55.9295 11H66.7293C67.4144 11 67.9698 11.5691 67.9698 12.2711V12.944H54.689V12.2711Z" fill="#00B812"/>
<path d="M12 18.7768C12 15.019 14.973 11.9727 18.6404 11.9727H69.8666C73.534 11.9727 76.507 15.019 76.507 18.7768V143.196C76.507 146.954 73.534 150 69.8666 150H18.6404C14.973 150 12 146.954 12 143.196V18.7768Z" fill="#F4F4F4"/>
<path d="M19.4434 22.456C19.4434 22.1888 19.4434 22.0552 19.4954 21.9531C19.5411 21.8634 19.6141 21.7904 19.7039 21.7446C19.8059 21.6926 19.9395 21.6926 20.2068 21.6926H68.3008C68.568 21.6926 68.7016 21.6926 68.8036 21.7446C68.8934 21.7904 68.9664 21.8634 69.0121 21.9531C69.0642 22.0552 69.0642 22.1888 69.0642 22.456V70.55C69.0642 70.8172 69.0642 70.9508 69.0121 71.0529C68.9664 71.1427 68.8934 71.2157 68.8036 71.2614C68.7016 71.3134 68.568 71.3134 68.3008 71.3134H20.2068C19.9395 71.3134 19.8059 71.3134 19.7039 71.2614C19.6141 71.2157 19.5411 71.1427 19.4954 71.0529C19.4434 70.9508 19.4434 70.8172 19.4434 70.55V22.456Z" fill="#2F2F2F"/>
<path fill-rule="evenodd" clip-rule="evenodd" d="M44.3266 92.0894C44.2788 92.0567 44.2165 92.0567 44.1687 92.0894L41.5333 93.8896C41.4243 93.9641 41.2771 93.9339 41.2044 93.8222C41.1318 93.7106 41.1612 93.5597 41.2702 93.4852L43.9056 91.685C44.1128 91.5435 44.3826 91.5435 44.5897 91.685L47.2251 93.4852C47.3341 93.5597 47.3636 93.7106 47.2909 93.8222C47.2182 93.9339 47.071 93.9641 46.962 93.8896L44.3266 92.0894ZM24.4579 110.982C24.5669 111.056 24.5964 111.207 24.5237 111.319L22.7668 114.019C22.7349 114.068 22.7349 114.132 22.7668 114.181L24.5237 116.881C24.5964 116.993 24.5669 117.144 24.4579 117.218C24.349 117.293 24.2017 117.262 24.1291 117.151L22.3721 114.45C22.234 114.238 22.234 113.962 22.3721 113.749L24.1291 111.049C24.2017 110.937 24.349 110.907 24.4579 110.982ZM64.0374 110.982C64.1464 110.907 64.2936 110.937 64.3663 111.049L66.1232 113.749C66.2613 113.962 66.2613 114.238 66.1232 114.45L64.3663 117.151C64.2936 117.262 64.1464 117.293 64.0374 117.218C63.9284 117.144 63.899 116.993 63.9716 116.881L65.7286 114.181C65.7604 114.132 65.7604 114.068 65.7286 114.019L63.9716 111.319C63.899 111.207 63.9284 111.056 64.0374 110.982ZM41.2044 134.378C41.2771 134.266 41.4243 134.236 41.5333 134.31L44.1687 136.111C44.2165 136.143 44.2788 136.143 44.3266 136.111L46.962 134.31C47.071 134.236 47.2182 134.266 47.2909 134.378C47.3636 134.489 47.3341 134.64 47.2251 134.715L44.5897 136.515C44.3826 136.656 44.1128 136.656 43.9056 136.515L41.2702 134.715C41.1612 134.64 41.1318 134.489 41.2044 134.378Z" fill="#3C3C43" fill-opacity="0.2"/>
<path d="M54.689 12.2711C54.689 11.5691 55.2444 11 55.9295 11H66.7293C67.4144 11 67.9698 11.5691 67.9698 12.2711V12.944H54.689V12.2711Z" fill="#00B812"/>
<path d="M12 18.7768C12 15.019 14.973 11.9727 18.6404 11.9727H69.8666C73.534 11.9727 76.507 15.019 76.507 18.7768V143.196C76.507 146.954 73.534 150 69.8666 150H18.6404C14.973 150 12 146.954 12 143.196V18.7768Z" fill="#F4F4F4"/>
<path d="M17.5874 18.9663C17.5874 18.6775 17.5874 18.533 17.6436 18.4227C17.6931 18.3257 17.772 18.2468 17.869 18.1973C17.9793 18.1411 18.1237 18.1411 18.4126 18.1411H70.3995C70.6884 18.1411 70.8328 18.1411 70.9431 18.1973C71.0402 18.2468 71.1191 18.3257 71.1685 18.4227C71.2247 18.533 71.2247 18.6775 71.2247 18.9663V70.9533C71.2247 71.2421 71.2247 71.3865 71.1685 71.4968C71.1191 71.5939 71.0402 71.6728 70.9431 71.7222C70.8328 71.7784 70.6884 71.7784 70.3995 71.7784H18.4126C18.1237 71.7784 17.9793 71.7784 17.869 71.7222C17.772 71.6728 17.6931 71.5939 17.6436 71.4968C17.5874 71.3865 17.5874 71.2421 17.5874 70.9533V18.9663Z" fill="#2F2F2F"/>
<path fill-rule="evenodd" clip-rule="evenodd" d="M44.1438 92.4961C44.3971 92.4961 44.6025 92.2907 44.6025 92.0374C44.6025 91.7841 44.3971 91.5787 44.1438 91.5787C43.8905 91.5787 43.6852 91.7841 43.6852 92.0374C43.6852 92.2907 43.8905 92.4961 44.1438 92.4961ZM45.6021 93.9401C45.8554 93.9401 46.0608 93.7347 46.0608 93.4814C46.0608 93.2281 45.8554 93.0227 45.6021 93.0227C45.3488 93.0227 45.1434 93.2281 45.1434 93.4814C45.1434 93.7347 45.3488 93.9401 45.6021 93.9401ZM47.5191 94.9251C47.5191 95.1784 47.3137 95.3838 47.0604 95.3838C46.8071 95.3838 46.6017 95.1784 46.6017 94.9251C46.6017 94.6718 46.8071 94.4664 47.0604 94.4664C47.3137 94.4664 47.5191 94.6718 47.5191 94.9251ZM42.6998 93.9401C42.9531 93.9401 43.1584 93.7347 43.1584 93.4814C43.1584 93.2281 42.9531 93.0227 42.6998 93.0227C42.4464 93.0227 42.2411 93.2281 42.2411 93.4814C42.2411 93.7347 42.4464 93.9401 42.6998 93.9401ZM41.7144 94.9251C41.7144 95.1784 41.509 95.3838 41.2557 95.3838C41.0023 95.3838 40.797 95.1784 40.797 94.9251C40.797 94.6718 41.0023 94.4664 41.2557 94.4664C41.509 94.4664 41.7144 94.6718 41.7144 94.9251ZM44.1714 136.546C43.9181 136.546 43.7128 136.752 43.7128 137.005C43.7128 137.259 43.9181 137.464 44.1714 137.464C44.4248 137.464 44.6301 137.259 44.6301 137.005C44.6301 136.752 44.4248 136.546 44.1714 136.546ZM42.7132 135.103C42.4598 135.103 42.2545 135.308 42.2545 135.561C42.2545 135.815 42.4598 136.02 42.7132 136.02C42.9665 136.02 43.1719 135.815 43.1719 135.561C43.1719 135.308 42.9665 135.103 42.7132 135.103ZM40.7962 134.117C40.7962 133.864 41.0016 133.659 41.2549 133.659C41.5082 133.659 41.7136 133.864 41.7136 134.117C41.7136 134.371 41.5082 134.576 41.2549 134.576C41.0016 134.576 40.7962 134.371 40.7962 134.117ZM45.6159 135.103C45.3625 135.103 45.1571 135.308 45.1571 135.561C45.1571 135.815 45.3625 136.02 45.6159 136.02C45.8692 136.02 46.0746 135.815 46.0746 135.561C46.0746 135.308 45.8692 135.103 45.6159 135.103ZM46.6013 134.117C46.6013 133.864 46.8067 133.658 47.06 133.658C47.3133 133.658 47.5187 133.864 47.5187 134.117C47.5187 134.37 47.3133 134.576 47.06 134.576C46.8067 134.576 46.6013 134.37 46.6013 134.117ZM24.8581 114.077C25.1114 114.077 25.3168 114.282 25.3168 114.536C25.3168 114.789 25.1114 114.994 24.8581 114.994C24.6048 114.994 24.3994 114.789 24.3994 114.536C24.3994 114.282 24.6048 114.077 24.8581 114.077ZM26.3022 112.619C26.5555 112.619 26.7609 112.824 26.7609 113.078C26.7609 113.331 26.5555 113.536 26.3022 113.536C26.0489 113.536 25.8435 113.331 25.8435 113.078C25.8435 112.824 26.0489 112.619 26.3022 112.619ZM28.2049 111.619C28.2049 111.366 27.9996 111.161 27.7463 111.161C27.4929 111.161 27.2876 111.366 27.2876 111.619C27.2876 111.873 27.4929 112.078 27.7463 112.078C27.9996 112.078 28.2049 111.873 28.2049 111.619ZM26.3022 115.521C26.5555 115.521 26.7609 115.726 26.7609 115.979C26.7609 116.233 26.5555 116.438 26.3022 116.438C26.0489 116.438 25.8435 116.233 25.8435 115.979C25.8435 115.726 26.0489 115.521 26.3022 115.521ZM28.2049 117.424C28.2049 117.17 27.9996 116.965 27.7463 116.965C27.4929 116.965 27.2876 117.17 27.2876 117.424C27.2876 117.677 27.4929 117.882 27.7463 117.882C27.9996 117.882 28.2049 117.677 28.2049 117.424ZM63.1787 114.507C63.1787 114.76 63.3841 114.966 63.6374 114.966C63.8907 114.966 64.0961 114.76 64.0961 114.507C64.0961 114.254 63.8907 114.048 63.6374 114.048C63.3841 114.048 63.1787 114.254 63.1787 114.507ZM61.7346 115.965C61.7346 116.218 61.94 116.424 62.1933 116.424C62.4466 116.424 62.652 116.218 62.652 115.965C62.652 115.712 62.4466 115.506 62.1933 115.506C61.94 115.506 61.7346 115.712 61.7346 115.965ZM60.7492 117.882C60.4959 117.882 60.2905 117.677 60.2905 117.424C60.2905 117.17 60.4959 116.965 60.7492 116.965C61.0026 116.965 61.2079 117.17 61.2079 117.424C61.2079 117.677 61.0026 117.882 60.7492 117.882ZM61.7346 113.063C61.7346 113.316 61.94 113.522 62.1933 113.522C62.4466 113.522 62.652 113.316 62.652 113.063C62.652 112.81 62.4466 112.604 62.1933 112.604C61.94 112.604 61.7346 112.81 61.7346 113.063ZM60.7492 112.077C60.4959 112.077 60.2905 111.872 60.2905 111.619C60.2905 111.365 60.4959 111.16 60.7492 111.16C61.0026 111.16 61.2079 111.365 61.2079 111.619C61.2079 111.872 61.0026 112.077 60.7492 112.077Z" fill="#DDDDDD"/>
</g>
<defs>
<filter id="filter0_d" x="0.825555" y="0.942999" width="86.8559" height="161.349" filterUnits="userSpaceOnUse" color-interpolation-filters="sRGB">
<feFlood flood-opacity="0" result="BackgroundImageFix"/>
<feColorMatrix in="SourceAlpha" type="matrix" values="0 0 0 0 0 0 0 0 0 0 0 0 0 0 0 0 0 0 127 0" result="hardAlpha"/>
<feOffset dy="1.11744"/>
<feGaussianBlur stdDeviation="5.58722"/>
<feComposite in2="hardAlpha" operator="out"/>
<feColorMatrix type="matrix" values="0 0 0 0 0 0 0 0 0 0 0 0 0 0 0 0 0 0 0.15 0"/>
<feBlend mode="normal" in2="BackgroundImageFix" result="effect1_dropShadow"/>
<feBlend mode="normal" in="SourceGraphic" in2="effect1_dropShadow" result="shape"/>
</filter>
</defs>
</svg>
