<svg width="136" height="81" viewBox="0 0 136 81" fill="none" xmlns="http://www.w3.org/2000/svg">
<path d="M10.8667 4C10.8667 1.99797 12.4897 0.375 14.4917 0.375H121.814C123.816 0.375 125.439 1.99797 125.439 4V73.7606H10.8667V4Z" fill="white" stroke="#BEBDC0" stroke-width="0.75"/>
<path d="M122.068 3.12073H14.2373C13.8921 3.12073 13.6123 3.40055 13.6123 3.74573V70.3898C13.6123 70.735 13.8921 71.0148 14.2373 71.0148H122.068C122.413 71.0148 122.693 70.735 122.693 70.3898V3.74573C122.693 3.40055 122.413 3.12073 122.068 3.12073Z" fill="#00B812" stroke="#7A7F80" stroke-width="0.75"/>
<path d="M98 31C99.1046 31 100 31.8954 100 33V37C100 38.1046 99.1046 39 98 39H37C35.8954 39 35 38.1046 35 37V33C35 31.8954 35.8954 31 37 31H98Z" fill="white"/>
<path d="M39 34H63V36H39V34Z" fill="#00B812"/>
<path d="M127.53 73.8242H8.77542C6.89742 73.8242 5.375 75.3466 5.375 77.2246V77.2246C5.375 79.1026 6.89742 80.6251 8.77542 80.6251H127.53C129.408 80.6251 130.93 79.1026 130.93 77.2246C130.93 75.3466 129.408 73.8242 127.53 73.8242Z" fill="white"/>
<path d="M8.77542 73.8242H127.53C129.408 73.8242 130.93 75.3466 130.93 77.2246V77.2246C130.93 79.1026 129.408 80.6251 127.53 80.6251H8.77542C6.89742 80.6251 5.375 79.1026 5.375 77.2246V77.2246C5.375 75.3466 6.89742 73.8242 8.77542 73.8242Z" stroke="#BEBDC0" stroke-width="0.75"/>
</svg>
