<svg width="32" height="32" viewBox="0 0 32 32" fill="none" xmlns="http://www.w3.org/2000/svg">
<path d="M32 16C32 24.8366 24.8366 32 16 32C7.16344 32 0 24.8366 0 16C0 7.16344 7.16344 0 16 0C24.8366 0 32 7.16344 32 16Z" fill="#621EE4"/>
<path d="M21.2833 18.7645L15.9962 24.0517L13.0536 21.1091L18.3408 15.822L15.9894 13.4706L8.3252 21.1345L15.9683 28.7773L23.6322 21.1134L21.2833 18.7645Z" fill="#1A1A1A"/>
<path d="M26 13.9863L16.0141 4.00016L6 14.0142L6.03193 18.6949L15.9716 8.75551L25.9834 18.7676L26 13.9863Z" fill="#38A1DB"/>
<path d="M21.2833 18.7645L15.9962 24.0517L13.0536 21.1091L18.3408 15.822L15.9894 13.4706L8.3252 21.1345L15.9683 28.7773L23.6322 21.1134L21.2833 18.7645Z" fill="white"/>
<path d="M26 13.9863L16.0141 4.00016L6 14.0142L6.03193 18.6949L15.9716 8.75551L25.9834 18.7676L26 13.9863Z" fill="#38A1DB"/>
</svg>
