<svg width="32" height="32" viewBox="0 0 32 32" fill="none" xmlns="http://www.w3.org/2000/svg">
<circle cx="16" cy="16" r="16" fill="#FF498B"/>
<path d="M15.1259 23.6037C15.2591 22.9895 15.8846 22.5947 16.5242 22.7227C17.1594 22.8622 17.5694 23.4541 17.4594 24.0711V24.1337L17.4557 24.1473C17.3061 24.7449 16.6799 25.1131 16.0574 24.9686H16.0245C16.0237 24.9679 16.023 24.9679 16.0222 24.9679C15.3863 24.8348 14.9838 24.2315 15.1222 23.6209C15.1237 23.6152 15.1244 23.6094 15.1259 23.6037ZM16.094 7C19.6658 7.08917 22.6098 9.71909 22.9644 13.135C23.3534 16.8804 20.5097 20.2193 16.6133 20.5926C16.6133 20.5926 16.3877 20.6072 16.1353 20.6257L15.9441 20.6401C15.754 20.655 15.5768 20.6706 15.4963 20.6825C14.4533 20.8364 13.6199 21.598 13.4074 22.5918C13.4074 22.5918 13.1268 23.9086 13.0992 24.0251C13.0977 24.0395 13.0977 24.0546 13.0992 24.0697C13.0977 24.0783 13.0954 24.0862 13.0932 24.0941C12.9645 24.5745 12.4543 24.8636 11.9545 24.7392H11.9029L11.8864 24.7356C11.3859 24.6133 11.0836 24.1243 11.2108 23.6432C11.2108 23.5983 11.7669 21.1017 12.323 18.6165L12.4239 18.1653C12.9444 15.8404 13.4351 13.6571 13.4351 13.6571C13.5473 13.1523 14.0643 12.8308 14.5895 12.9387C15.1147 13.0466 15.4491 13.5435 15.3369 14.0484L14.4017 18.0914L14.2476 18.8997C14.2296 18.922 14.2296 18.9537 14.2476 18.9759C14.2745 19.0011 14.3157 19.0011 14.3411 18.9759C14.5199 18.9321 14.701 18.8976 14.8835 18.8724C15.3788 18.8141 16.3746 18.7559 16.3746 18.7559C19.0164 18.6013 21.0992 16.5366 21.1793 13.9944C21.2646 11.2789 19.0433 9.01145 16.2182 8.92947C13.3932 8.84749 11.0342 10.9826 10.949 13.6981C10.9213 14.2893 11.0148 14.8797 11.225 15.4363C11.3836 15.9253 11.1195 16.4481 10.622 16.6315C10.1073 16.7818 9.55888 16.5201 9.37408 16.0339C9.12644 15.3198 9 14.5719 9 13.8189C9.01571 10.0592 12.1827 7.0151 16.094 7Z" fill="white"/>
</svg>
