<svg width="32" height="32" viewBox="0 0 32 32" fill="none" xmlns="http://www.w3.org/2000/svg">
<circle cx="16" cy="16" r="16" fill="#818595"/>
<path d="M15.877 23.2778C20.0151 23.2778 23.4429 19.8574 23.4429 15.7119C23.4429 11.5737 20.0151 8.146 15.8696 8.146C11.7314 8.146 8.31104 11.5737 8.31104 15.7119C8.31104 19.8574 11.7388 23.2778 15.877 23.2778ZM15.7085 17.2354C15.2397 17.2354 14.9834 17.0083 14.9834 16.5762V16.4956C14.9834 15.7998 15.3789 15.4116 15.9136 15.0308C16.5654 14.584 16.8804 14.3496 16.8804 13.8662C16.8804 13.3535 16.4702 12.9946 15.855 12.9946C15.4009 12.9946 15.0493 13.207 14.7856 13.6245L14.6685 13.7856C14.5146 13.9834 14.3242 14.1006 14.0459 14.1006C13.7383 14.1006 13.4453 13.8735 13.4453 13.5073C13.4453 13.3608 13.4746 13.2363 13.5186 13.1045C13.7603 12.394 14.6392 11.8008 15.9502 11.8008C17.3052 11.8008 18.4478 12.5186 18.4478 13.793C18.4478 14.6792 17.957 15.1187 17.21 15.6021C16.7119 15.9243 16.4482 16.188 16.4189 16.5835C16.4189 16.6128 16.4189 16.6421 16.4189 16.6714C16.397 16.9863 16.126 17.2354 15.7085 17.2354ZM15.6938 19.5645C15.2104 19.5645 14.8003 19.2056 14.8003 18.7295C14.8003 18.2534 15.2031 17.8872 15.6938 17.8872C16.1919 17.8872 16.5947 18.2461 16.5947 18.7295C16.5947 19.2129 16.1846 19.5645 15.6938 19.5645Z" fill="white"/>
</svg>
