<svg width="32" height="32" viewBox="0 0 32 32" fill="none" xmlns="http://www.w3.org/2000/svg">
<circle cx="16" cy="16" r="16" fill="#1969FF"/>
<path d="M16.9618 5.82561L16.6761 6.36645H16.6761L16.9618 5.82561ZM22.0609 8.51955L22.3466 7.97871L22.0609 8.51955ZM22.0609 9.25124L22.3466 9.79208L22.0609 9.25124ZM16.9618 11.9452L16.6761 11.4043L16.9618 11.9452ZM15.5769 11.9452L15.2912 12.486L15.5769 11.9452ZM10.4778 9.25124L10.1921 9.79208L10.4778 9.25124ZM10.4778 8.51955L10.1921 7.97871L10.4778 8.51955ZM15.5769 5.82561L15.2912 5.28477L15.5769 5.82561ZM16.9618 12.3994L17.2476 11.8585L16.9618 12.3994ZM22.0609 15.0933L21.7752 15.6341L22.0609 15.0933ZM22.0609 15.825L21.7752 15.2842L22.0609 15.825ZM16.9618 18.5189L16.6761 17.9781L16.9618 18.5189ZM15.5769 18.5189L15.2912 19.0598L15.5769 18.5189ZM10.4778 15.825L10.7636 15.2842H10.7636L10.4778 15.825ZM10.4778 15.0933L10.7636 15.6341H10.7636L10.4778 15.0933ZM15.5769 12.3994L15.2912 11.8585H15.2912L15.5769 12.3994ZM16.9618 19.2754L16.6761 19.8162L16.9618 19.2754ZM22.0609 21.9693L21.7752 22.5102L22.0609 21.9693ZM22.0609 22.701L21.7752 22.1602L22.0609 22.701ZM16.9618 25.3949L17.2476 25.9358L16.9618 25.3949ZM15.5769 25.3949L15.2912 25.9358H15.2912L15.5769 25.3949ZM10.4778 22.701L10.7636 22.1602L10.4778 22.701ZM10.4778 21.9693L10.7636 22.5102H10.7636L10.4778 21.9693ZM15.5769 19.2754L15.2912 18.7345L15.5769 19.2754ZM15.6577 18.4816V19.0933H16.8811V18.4816H15.6577ZM16.8811 12.2856V11.6739H15.6577V12.2856H16.8811ZM10.1911 22.3422L9.57963 22.3579L10.1911 22.3422ZM10.1911 8.87833L9.57963 8.86262L10.1911 8.87833ZM22.3476 22.3422L22.9591 22.3579L22.3476 22.3422ZM16.6761 6.36645L21.7752 9.06039L22.3466 7.97871L17.2476 5.28477L16.6761 6.36645ZM21.7752 8.7104L16.6761 11.4043L17.2476 12.486L22.3466 9.79208L21.7752 8.7104ZM16.6761 11.4043C16.5952 11.4471 16.449 11.485 16.2694 11.485C16.0898 11.485 15.9436 11.4471 15.8626 11.4043L15.2912 12.486C15.5927 12.6453 15.9478 12.7084 16.2694 12.7084C16.591 12.7084 16.9461 12.6453 17.2476 12.486L16.6761 11.4043ZM15.8626 11.4043L10.7636 8.7104L10.1921 9.79208L15.2912 12.486L15.8626 11.4043ZM10.7636 9.06039L15.8626 6.36645L15.2912 5.28477L10.1921 7.97871L10.7636 9.06039ZM15.8626 6.36645C15.9436 6.32368 16.0898 6.28575 16.2694 6.28575C16.449 6.28575 16.5952 6.32368 16.6761 6.36645L17.2476 5.28477C16.9461 5.12548 16.591 5.06239 16.2694 5.06239C15.9478 5.06239 15.5927 5.12548 15.2912 5.28477L15.8626 6.36645ZM16.6761 12.9402L21.7752 15.6341L22.3466 14.5525L17.2476 11.8585L16.6761 12.9402ZM21.7752 15.6341C21.8135 15.6544 21.8091 15.6608 21.7908 15.6369C21.7696 15.6093 21.7361 15.5475 21.7361 15.4592C21.7361 15.3708 21.7696 15.309 21.7908 15.2814C21.8091 15.2575 21.8135 15.2639 21.7752 15.2842L22.3466 16.3658C22.6352 16.2134 22.9594 15.9151 22.9594 15.4592C22.9594 15.0033 22.6352 14.7049 22.3466 14.5525L21.7752 15.6341ZM21.7752 15.2842L16.6761 17.9781L17.2476 19.0598L22.3466 16.3658L21.7752 15.2842ZM16.6761 17.9781C16.5952 18.0209 16.449 18.0588 16.2694 18.0588C16.0898 18.0588 15.9436 18.0209 15.8626 17.9781L15.2912 19.0598C15.5927 19.2191 15.9478 19.2822 16.2694 19.2822C16.591 19.2822 16.9461 19.2191 17.2476 19.0598L16.6761 17.9781ZM15.8626 17.9781L10.7636 15.2842L10.1921 16.3658L15.2912 19.0598L15.8626 17.9781ZM10.7636 15.2842C10.7253 15.2639 10.7296 15.2575 10.748 15.2814C10.7692 15.309 10.8027 15.3708 10.8027 15.4592C10.8027 15.5475 10.7692 15.6093 10.748 15.6369C10.7296 15.6608 10.7253 15.6544 10.7636 15.6341L10.1921 14.5525C9.90352 14.7049 9.57934 15.0033 9.57934 15.4592C9.57934 15.9151 9.90352 16.2134 10.1921 16.3658L10.7636 15.2842ZM10.7636 15.6341L15.8626 12.9402L15.2912 11.8585L10.1921 14.5525L10.7636 15.6341ZM15.8626 12.9402C15.9436 12.8974 16.0898 12.8595 16.2694 12.8595C16.449 12.8595 16.5952 12.8974 16.6761 12.9402L17.2476 11.8585C16.9461 11.6992 16.591 11.6362 16.2694 11.6362C15.9478 11.6362 15.5927 11.6992 15.2912 11.8585L15.8626 12.9402ZM16.6761 19.8162L21.7752 22.5102L22.3466 21.4285L17.2476 18.7345L16.6761 19.8162ZM21.7752 22.1602L16.6761 24.8541L17.2476 25.9358L22.3466 23.2418L21.7752 22.1602ZM16.6761 24.8541C16.5952 24.8969 16.449 24.9348 16.2694 24.9348C16.0898 24.9348 15.9436 24.8969 15.8626 24.8541L15.2912 25.9358C15.5927 26.0951 15.9478 26.1582 16.2694 26.1582C16.591 26.1582 16.9461 26.0951 17.2476 25.9358L16.6761 24.8541ZM15.8626 24.8541L10.7636 22.1602L10.1921 23.2418L15.2912 25.9358L15.8626 24.8541ZM10.7636 22.5102L15.8626 19.8162L15.2912 18.7345L10.1921 21.4285L10.7636 22.5102ZM15.8626 19.8162C15.9436 19.7734 16.0898 19.7355 16.2694 19.7355C16.449 19.7355 16.5952 19.7734 16.6761 19.8162L17.2476 18.7345C16.9461 18.5752 16.591 18.5122 16.2694 18.5122C15.9478 18.5122 15.5927 18.5752 15.2912 18.7345L15.8626 19.8162ZM22.6363 7.07749C23.184 7.40911 23.4275 7.55115 23.5876 7.75881C23.7154 7.9247 23.8306 8.19896 23.8306 8.89662H25.054C25.054 8.08308 24.9237 7.48839 24.5566 7.01202C24.2216 6.57742 23.7206 6.30387 23.2699 6.031L22.6363 7.07749ZM9.80598 23.9164C9.25828 23.5848 9.01473 23.4427 8.85468 23.2351C8.72683 23.0692 8.61168 22.7949 8.61168 22.0972H7.38832C7.38832 22.9108 7.51857 23.5055 7.88571 23.9818C8.22066 24.4164 8.7217 24.69 9.17237 24.9629L9.80598 23.9164ZM16.8811 18.4816V12.2856H15.6577V18.4816H16.8811ZM10.7636 22.1602C10.7261 22.1403 10.7295 22.1338 10.7469 22.1561C10.7669 22.1816 10.8004 22.2404 10.8026 22.3265L9.57963 22.3579C9.59104 22.8023 9.9082 23.0918 10.1921 23.2418L10.7636 22.1602ZM10.8026 22.3265C10.8049 22.417 10.7714 22.4817 10.749 22.5115C10.7298 22.5371 10.7245 22.5308 10.7636 22.5102L10.1921 21.4285C9.89881 21.5834 9.56764 21.8906 9.57963 22.3579L10.8026 22.3265ZM10.7636 8.7104C10.7245 8.68973 10.7298 8.6835 10.749 8.70905C10.7714 8.73883 10.8049 8.80357 10.8026 8.89403L9.57963 8.86262C9.56763 9.32989 9.8988 9.63711 10.1921 9.79208L10.7636 8.7104ZM10.8026 8.89403C10.8004 8.98013 10.7669 9.03891 10.7469 9.06448C10.7295 9.08677 10.7261 9.08021 10.7636 9.06039L10.1921 7.97871C9.9082 8.12871 9.59104 8.41829 9.57963 8.86262L10.8026 8.89403ZM10.8028 22.3422V8.87833H9.57943V22.3422H10.8028ZM21.7752 9.06039C21.8127 9.08021 21.8093 9.08677 21.7918 9.06448C21.7718 9.03891 21.7384 8.98013 21.7362 8.89403L22.9591 8.86262C22.9477 8.41829 22.6306 8.1287 22.3466 7.97871L21.7752 9.06039ZM21.7362 8.89403C21.7338 8.80357 21.7673 8.73883 21.7897 8.70905C21.809 8.6835 21.8143 8.68973 21.7752 8.7104L22.3466 9.79208C22.64 9.63711 22.9711 9.32989 22.9591 8.86262L21.7362 8.89403ZM21.7752 22.5102C21.8143 22.5308 21.809 22.5371 21.7897 22.5115C21.7673 22.4817 21.7338 22.417 21.7362 22.3265L22.9591 22.3579C22.9711 21.8906 22.6399 21.5834 22.3466 21.4285L21.7752 22.5102ZM21.7362 22.3265C21.7384 22.2404 21.7718 22.1816 21.7918 22.1561C21.8093 22.1338 21.8127 22.1403 21.7752 22.1602L22.3466 23.2418C22.6306 23.0918 22.9477 22.8023 22.9591 22.3579L21.7362 22.3265ZM21.736 8.87833V22.3422H22.9593V8.87833H21.736Z" fill="white"/>
</svg>
