<svg width="32" height="32" viewBox="0 0 32 32" fill="none" xmlns="http://www.w3.org/2000/svg">
<circle cx="16" cy="16" r="16" fill="#01943F"/>
<path fill-rule="evenodd" clip-rule="evenodd" d="M23.2043 24C23.2718 24 23.3265 23.9453 23.3265 23.8779L23.3265 17.5277C22.4417 19.1223 21.0154 20.3749 19.296 21.0373V23.2672C19.296 23.6719 19.6241 24 20.0288 24H23.2043ZM19.296 13.7405C19.296 15.2919 18.0382 16.5496 16.4868 16.5496H15.6318C14.5526 16.5496 13.6776 17.4245 13.6776 18.5038V20.458C13.6776 20.5255 13.7323 20.5802 13.7998 20.5802H16.4868C20.2643 20.5802 23.3265 17.5179 23.3265 13.7405V8.73282C23.3265 8.3281 22.9984 8 22.5937 8L19.296 8L19.296 13.7405ZM8.79214 8C8.72468 8 8.67 8.05468 8.67 8.12214V14.4723C9.55483 12.8777 10.9811 11.6251 12.7005 10.9627V8.73283C12.7005 8.3281 12.3724 8 11.9677 8H8.79214ZM12.7005 18.2595C12.7005 16.7081 13.9582 15.4504 15.5097 15.4504H16.3647C17.4439 15.4504 18.3189 14.5755 18.3189 13.4962V11.542C18.3189 11.4745 18.2642 11.4198 18.1967 11.4198H15.5097C11.7322 11.4198 8.67 14.4821 8.67 18.2595V23.2672C8.67 23.6719 8.99809 24 9.40282 24H12.7005V18.2595Z" fill="white"/>
</svg>
