<svg width="32" height="32" viewBox="0 0 32 32" fill="none" xmlns="http://www.w3.org/2000/svg">
<circle cx="16" cy="16" r="16" fill="#205FEC"/>
<path d="M12.2276 20.1986C13.8865 19.5266 15.0566 17.8999 15.0566 16C15.0566 15.6325 15.0128 15.2752 14.9302 14.9331C14.1244 14.7365 13.3881 14.3224 12.8016 13.7358C12.2143 13.1485 11.7998 12.4109 11.6035 11.6038C12.4092 11.803 13.1452 12.2185 13.7321 12.8054C14.1618 13.235 14.4996 13.7446 14.7279 14.303C14.0564 12.6429 12.4291 11.4717 10.5283 11.4717C8.02739 11.4717 6 13.4991 6 16C6 18.5009 8.02739 20.5283 10.5283 20.5283C10.8956 20.5283 11.2527 20.4846 11.5946 20.402C11.7913 19.5963 12.2054 18.86 12.7919 18.2735C13.3792 17.6862 14.1168 17.2717 14.9239 17.0754C14.7247 17.8811 14.3092 18.6171 13.7223 19.204C13.2934 19.633 12.7848 19.9703 12.2276 20.1986Z" fill="white"/>
<path d="M16.001 26C18.5019 26 20.5293 23.9726 20.5293 21.4717C20.5293 20.0808 19.9022 18.8364 18.9153 18.0057C19.0124 18.0876 19.1063 18.1739 19.1965 18.2641C19.7839 18.8515 20.1984 19.5891 20.3946 20.3962C19.5889 20.197 18.8529 19.7815 18.2661 19.1946C17.6799 18.6085 17.2648 17.8736 17.0652 17.0691C16.7239 16.9869 16.3675 16.9434 16.001 16.9434C15.1029 16.9434 14.2659 17.2048 13.5619 17.6557C13.9792 17.39 14.439 17.1934 14.9239 17.0754C14.7247 17.8811 14.3092 18.6171 13.7223 19.204C13.1368 19.7896 12.4028 20.2045 11.5992 20.4043C11.5165 20.7466 11.4727 21.104 11.4727 21.4717C11.4727 23.9726 13.5 26 16.001 26Z" fill="white"/>
<path d="M21.4717 20.5283C23.9726 20.5283 26 18.5009 26 16C26 13.4991 23.9726 11.4717 21.4717 11.4717C21.1037 11.4717 20.7459 11.5156 20.4034 11.5984C20.2067 12.4039 19.7927 13.14 19.2063 13.7263C18.619 14.3137 17.8814 14.7282 17.0742 14.9244C17.2735 14.1187 17.6889 13.3827 18.2758 12.7958C18.6496 12.4221 19.0838 12.1179 19.5579 11.8948C18.0135 12.6159 16.9434 14.183 16.9434 16C16.9434 16.3677 16.9872 16.7251 17.0699 17.0674C17.8749 17.2642 18.6105 17.6781 19.1965 18.2641C19.7839 18.8515 20.1984 19.5891 20.3946 20.3962C19.5889 20.197 18.8529 19.7815 18.2661 19.1946C17.9569 18.8855 17.6954 18.535 17.4879 18.1547C18.2541 19.5684 19.7508 20.5283 21.4717 20.5283Z" fill="white"/>
<path d="M20.403 11.5946C20.4855 11.2527 20.5293 10.8956 20.5293 10.5283C20.5293 8.02739 18.5019 6 16.001 6C13.5 6 11.4727 8.02739 11.4727 10.5283C11.4727 11.3964 11.7169 12.2074 12.1405 12.8964C11.8967 12.4978 11.7149 12.062 11.6035 11.6038C12.4092 11.803 13.1452 12.2185 13.7321 12.8054C14.318 13.3913 14.7331 14.1258 14.9327 14.9299C15.2752 15.0127 15.633 15.0566 16.001 15.0566C17.4478 15.0566 18.7362 14.378 19.5652 13.3217C19.4541 13.4632 19.3343 13.5983 19.2063 13.7263C18.619 14.3137 17.8814 14.7282 17.0742 14.9244C17.2735 14.1187 17.6889 13.3827 18.2758 12.7958C18.8624 12.2093 19.5979 11.794 20.403 11.5946Z" fill="white"/>
</svg>
