<svg width="32" height="32" viewBox="0 0 32 32" fill="none" xmlns="http://www.w3.org/2000/svg">
<circle cx="16" cy="16" r="16" fill="#7A4ADD"/>
<g clip-path="url(#clip0)">
<path d="M20.5937 12.5672C20.2656 12.3881 19.8437 12.3881 19.4687 12.5672L16.8437 14.0448L15.0625 14.9851L12.4844 16.4627C12.1562 16.6418 11.7344 16.6418 11.3594 16.4627L9.34375 15.2985C9.01562 15.1194 8.78125 14.7612 8.78125 14.3582V12.1194C8.78125 11.7612 8.96875 11.403 9.34375 11.1791L11.3594 10.0597C11.6875 9.8806 12.1094 9.8806 12.4844 10.0597L14.5 11.2239C14.8281 11.403 15.0625 11.7612 15.0625 12.1642V13.6418L16.8437 12.6567V11.1343C16.8437 10.7761 16.6562 10.4179 16.2812 10.194L12.5312 8.08956C12.2031 7.91045 11.7812 7.91045 11.4062 8.08956L7.5625 10.2388C7.1875 10.4179 7 10.7761 7 11.1343V15.3433C7 15.7015 7.1875 16.0597 7.5625 16.2836L11.3594 18.3881C11.6875 18.5672 12.1094 18.5672 12.4844 18.3881L15.0625 16.9552L16.8437 15.9702L19.4219 14.5373C19.75 14.3582 20.1719 14.3582 20.5469 14.5373L22.5625 15.6567C22.8906 15.8358 23.125 16.194 23.125 16.597V18.8358C23.125 19.194 22.9375 19.5522 22.5625 19.7761L20.5937 20.8955C20.2656 21.0746 19.8437 21.0746 19.4687 20.8955L17.4531 19.7761C17.125 19.597 16.8906 19.2388 16.8906 18.8358V17.403L15.1094 18.3881V19.8657C15.1094 20.2239 15.2969 20.5821 15.6719 20.806L19.4687 22.9105C19.7969 23.0896 20.2187 23.0896 20.5937 22.9105L24.3906 20.806C24.7187 20.6269 24.9531 20.2687 24.9531 19.8657V15.6119C24.9531 15.2537 24.7656 14.8955 24.3906 14.6716L20.5937 12.5672Z" fill="white"/>
</g>
<defs>
<clipPath id="clip0">
<rect width="18" height="15" fill="white" transform="translate(7 8)"/>
</clipPath>
</defs>
</svg>
