<svg width="32" height="32" viewBox="0 0 32 32" fill="none" xmlns="http://www.w3.org/2000/svg">
<circle cx="16" cy="16" r="16" fill="#111111"/>
<path fill-rule="evenodd" clip-rule="evenodd" d="M10.759 9.33337C10.6148 9.33337 10.4765 9.39181 10.3746 9.49584L7.74628 12.1768C7.57488 12.3516 7.69618 12.6508 7.93848 12.6508H21.2397C21.3839 12.6508 21.5221 12.5923 21.6241 12.4883L24.2524 9.80734C24.4238 9.63247 24.3025 9.33337 24.0602 9.33337H10.759ZM21.6241 14.4966C21.5221 14.3921 21.3839 14.3334 21.2397 14.3334H7.93848C7.69618 14.3334 7.57488 14.6339 7.74628 14.8096L10.3746 17.5035C10.4765 17.608 10.6148 17.6667 10.759 17.6667H24.0602C24.3025 17.6667 24.4238 17.3661 24.2524 17.1905L21.6241 14.4966ZM10.3746 19.5117C10.4765 19.4077 10.6148 19.3492 10.759 19.3492H24.0602C24.3025 19.3492 24.4238 19.6484 24.2524 19.8232L21.6241 22.5042C21.5221 22.6082 21.3839 22.6666 21.2397 22.6666H7.93848C7.69618 22.6666 7.57488 22.3675 7.74628 22.1927L10.3746 19.5117Z" fill="url(#paint0_linear)"/>
<defs>
<linearGradient id="paint0_linear" x1="18.9336" y1="5.67597" x2="9.42591" y2="23.515" gradientUnits="userSpaceOnUse">
<stop stop-color="#00FFA3"/>
<stop offset="1" stop-color="#DC1FFF"/>
</linearGradient>
</defs>
</svg>
