<svg width="32" height="32" viewBox="0 0 32 32" fill="none" xmlns="http://www.w3.org/2000/svg">
<circle cx="16" cy="16" r="16" fill="#1234B5"/>
<path d="M8.16507 24.1644C7.69809 24.1985 7.22895 24.1888 6.76379 24.1353C6.47198 24.1008 6.18527 24.0319 5.90964 23.9301C5.77747 23.8789 5.65033 23.8156 5.52985 23.7409C5.44853 23.6867 5.37295 23.6243 5.30431 23.5547C5.23319 23.4822 5.1689 23.4033 5.11223 23.319C4.99843 23.1519 4.91335 22.967 4.8605 22.7718C4.75898 22.3584 4.75499 21.927 4.84886 21.5117C5.02493 20.6474 5.4309 19.8005 5.92128 19.0104C6.41757 18.2121 6.96997 17.4501 7.57429 16.7302C7.92255 16.3121 8.28147 15.9032 8.65107 15.5035L7.91479 14.9797L7.86386 14.9433C6.80788 16.0261 5.88509 17.2313 5.11514 18.5331C4.86493 18.9714 4.64423 19.4259 4.45452 19.8936C4.25688 20.3726 4.11859 20.874 4.04272 21.3866C3.95815 21.9222 3.9995 22.4703 4.1635 22.9872C4.25346 23.2541 4.38938 23.5033 4.56511 23.7235C4.65288 23.8338 4.75027 23.936 4.85613 24.0291C4.96372 24.1242 5.08073 24.208 5.20536 24.2793C5.677 24.5222 6.19843 24.6527 6.72887 24.6606C7.22741 24.6795 7.72659 24.6483 8.2189 24.5674C9.09071 24.4162 9.94388 24.1723 10.7639 23.8399C10.7755 23.7991 10.7886 23.7555 10.8017 23.7075C10.5485 23.7802 10.1615 23.8879 9.92867 23.9316C9.34646 24.0473 8.75735 24.125 8.16507 24.1644ZM13.8138 10.8894C14.1543 10.6464 14.5021 10.4121 14.8528 10.1836L14.9866 9.77765L15.2093 9.11412C14.5865 9.47693 13.9763 9.8606 13.3787 10.2651C12.5697 10.8122 11.7868 11.4059 11.036 12.0287C10.4612 12.5002 9.8952 12.9862 9.34516 13.4838L10.6751 13.4736C11.6629 12.5436 12.7115 11.6803 13.8138 10.8894ZM22.4645 14.0295H18.1966C17.9231 13.1113 17.6786 12.3096 17.3963 11.3957C17.1053 10.4383 16.8055 9.48518 16.5043 8.53208L16.2511 7.72885L15.9819 8.53208L15.5047 9.95372L15.0347 11.3768L14.1616 14.0149L11.3852 14.0237H9.88501L8.38624 14.0382H7.53646L8.22473 14.5286C9.03862 15.1107 9.85397 15.6883 10.6708 16.2616L11.8989 17.1231L13.0237 17.9059C12.7996 18.6606 12.5799 19.4173 12.3645 20.1759L12.0328 21.3866L11.4114 23.5503V23.5605L22.4616 14.0266L22.4645 14.0295ZM27.1412 6.67535C26.0324 5.80228 23.4598 5.31918 16.9671 8.17703L17.1722 8.82892C17.1722 8.82892 24.0113 5.44432 26.3933 6.87033C30.1286 9.11412 23.2299 14.661 19.0275 17.7662L19.0653 17.9117C19.2923 18.7848 19.5397 19.6579 19.7754 20.531L20.3153 22.4546L18.6608 21.3473C17.9012 20.8511 17.1475 20.3476 16.3836 19.8601L16.2555 19.7787L16.1435 19.8645L14.9503 20.7725L13.7629 21.6892L12.5842 22.6176C12.1914 22.9275 11.7956 23.2462 11.4071 23.5634C11.829 23.2913 12.2539 23.0134 12.6716 22.7369L13.9171 21.9017L15.1554 21.0563L16.2657 20.2865C16.9656 20.7871 17.6728 21.2731 18.3771 21.7663L20.6209 23.3029L21.2393 23.7264L21.0283 22.9988L20.2614 20.3898C20.0097 19.5677 19.7667 18.7441 19.5077 17.9248C19.5091 17.9321 31.2083 9.89115 27.1412 6.67535Z" fill="white"/>
</svg>
